<svg width="168" height="168" viewBox="0 0 168 168" fill="none" xmlns="http://www.w3.org/2000/svg">
<path d="M0 14.6623C0 6.56452 6.56451 0 14.6623 0H152.83C160.927 0 167.492 6.56451 167.492 14.6623V152.83C167.492 160.927 160.927 167.492 152.83 167.492H14.6623C6.56452 167.492 0 160.927 0 152.83V14.6623Z" fill="#D72D2D"/>
<g clip-path="url(#clip0_499_845)">
<path d="M130.827 47.9272L85.6503 25.2059C84.6845 24.723 83.5496 24.723 82.6079 25.2059L37.8898 47.6857C36.924 48.1687 36.3203 49.1586 36.3203 50.2452V119.689C36.3203 120.003 36.4893 120.268 36.7791 120.413L82.946 143.497C83.4772 143.762 84.1291 143.376 84.1291 142.772V74.1496C84.1291 73.063 84.7328 72.0731 85.6986 71.5901L130.827 49.0379C131.286 48.8206 131.286 48.1687 130.827 47.9272ZM62.9291 106.843L53.4639 102.111C53.319 102.038 53.2224 101.869 53.2224 101.724V92.3073C53.2224 91.9693 53.5605 91.7519 53.8744 91.921L62.1805 96.0741C65.2712 97.6194 67.227 100.782 67.227 104.211C67.227 106.408 64.909 107.833 62.9532 106.843H62.9291Z" fill="white"/>
<path d="M131.168 55.9552V85.2931C131.168 85.6032 130.999 85.8894 130.709 86.0087L89.3714 106.545C88.816 106.808 88.1882 106.426 88.1882 105.83V76.4917C88.1882 76.1817 88.3572 75.8954 88.647 75.7762L101.589 69.36C101.927 69.193 102.314 69.2646 102.579 69.5508L104.052 71.1489C104.294 71.4113 104.704 71.5067 105.042 71.3397L109.726 69.0261L114.7 66.5455C114.869 66.4739 114.99 66.3308 115.087 66.1638L117.139 61.8705C117.212 61.7035 117.356 61.5843 117.525 61.4889L130.033 55.2874C130.588 55.025 131.216 55.4066 131.216 56.0029L131.168 55.9552ZM117.115 98.7933L115.063 103.087C114.99 103.254 114.845 103.373 114.676 103.468L109.702 105.949L105.018 108.263C104.68 108.43 104.294 108.358 104.028 108.072L102.555 106.474C102.314 106.211 101.903 106.116 101.565 106.283L88.6228 112.699C88.3331 112.842 88.1641 113.128 88.1641 113.415V142.752C88.1641 143.349 88.816 143.754 89.3472 143.468L130.685 122.932C130.975 122.788 131.144 122.502 131.144 122.216V92.878C131.144 92.2817 130.492 91.8763 129.961 92.1625L117.453 98.364C117.284 98.4356 117.163 98.5787 117.067 98.7456L117.115 98.7933Z" fill="white"/>
</g>
<defs>
<clipPath id="clip0_499_845">
<rect width="94.845" height="118.749" fill="white" transform="translate(36.3203 24.8438)"/>
</clipPath>
</defs>
</svg>
