<?xml version="1.0" encoding="utf-8"?>
<!-- Generator: Adobe Illustrator 23.0.1, SVG Export Plug-In . SVG Version: 6.00 Build 0)  -->
<svg version="1.1" id="Layer_1" xmlns="http://www.w3.org/2000/svg" xmlns:xlink="http://www.w3.org/1999/xlink" x="0px" y="0px"
	 viewBox="0 0 300 81" style="enable-background:new 0 0 300 81;" xml:space="preserve">
<style type="text/css">
	.st0{fill:#FFFFFF;}
</style>
<g>
	<g>
		<g>
			<path class="st0" d="M63.95,39.93l-0.33-0.04c1.33-0.87,2.41-2.22,2.41-4.54v-0.06c0-1.49-0.45-2.69-1.36-3.68
				c-1.14-1.24-2.93-1.92-5.2-1.92h-4.5l-4.74,3.7v17.99h10.32c4.9,0,8.12-1.98,8.12-5.95v-0.06
				C68.67,42.45,66.75,40.29,63.95,39.93z M54.49,33.86h4.32c1.85,0,2.87,0.8,2.87,2.23v0.06c0,1.61-1.22,2.29-3.15,2.29h-4.04
				V33.86z M63.93,44.84c0,1.61-1.27,2.36-3.38,2.36h-5.67v-4.77h5.52c2.45,0,3.53,0.9,3.53,2.36V44.84z"/>
		</g>
		<path class="st0" d="M13.7,29.69h4.77v8.58h8.8v-8.58h4.77v17.91l-4.77,3.79v-8.71h-8.8v8.71H13.7V29.69z"/>
		<path class="st0" d="M34.88,29.69h4.77v17.36h8.31v4.34H34.88V29.69z"/>
		<path class="st0" d="M72.48,15.95L72.48,15.95C65.15,6.55,53.72,0.5,40.9,0.5C18.83,0.5,0.87,18.46,0.87,40.53
			c0,3.74,0.52,7.37,1.48,10.81h5.77C7,47.94,6.39,44.31,6.39,40.53C6.39,21.5,21.87,6.02,40.9,6.02c11.05,0,20.91,5.22,27.23,13.33
			h0c4.53,5.84,7.24,13.17,7.24,21.12c0,19.03-15.48,34.52-34.52,34.52c-10.97,0-20.77-5.15-27.09-13.16l-4.34,3.39
			c7.34,9.3,18.7,15.28,31.44,15.28c22.07,0,40.03-17.96,40.03-40.03C80.89,31.24,77.75,22.73,72.48,15.95z"/>
		<path class="st0" d="M8.12,51.34H2.35c0.01,0.03,0.01,0.05,0.02,0.08h5.77C8.14,51.39,8.13,51.37,8.12,51.34z"/>
		<path class="st0" d="M13.76,61.83l-4.34,3.39c0.02,0.02,0.03,0.04,0.05,0.06l4.34-3.39C13.79,61.87,13.78,61.85,13.76,61.83z"/>
	</g>
	<g>
		<path class="st0" d="M87.61,29.47h4.8v8.63h8.84v-8.63h4.8v21.8h-4.8v-8.75h-8.84v8.75h-4.8V29.47z"/>
		<path class="st0" d="M118.76,29.31h4.42l9.34,21.96h-5.01l-1.99-4.89h-9.22l-1.99,4.89h-4.89L118.76,29.31z M123.8,42.14
			l-2.9-7.07l-2.9,7.07H123.8z"/>
		<path class="st0" d="M135.89,29.47h5.17l5.73,9.22l5.73-9.22h5.17v21.8h-4.76V37.03l-6.14,9.31h-0.12l-6.07-9.22v14.14h-4.7V29.47
			z"/>
		<path class="st0" d="M168,33.89h-6.63v-4.42h18.06v4.42h-6.63v17.38H168V33.89z"/>
	</g>
	<g>
		<path class="st0" d="M90.46,55.68h1.38l2.93,6.87H93.2l-0.62-1.53h-2.89l-0.62,1.53h-1.53L90.46,55.68z M92.04,59.69l-0.91-2.21
			l-0.91,2.21H92.04z"/>
		<path class="st0" d="M95.47,59.63v-3.9h1.5v3.86c0,1.11,0.56,1.69,1.47,1.69s1.47-0.56,1.47-1.64v-3.91h1.5v3.85
			c0,2.07-1.16,3.08-2.99,3.08S95.47,61.63,95.47,59.63z"/>
		<path class="st0" d="M102.94,55.72h2.66c2.15,0,3.63,1.47,3.63,3.39v0.02c0,1.92-1.48,3.41-3.63,3.41h-2.66V55.72z M104.44,57.08
			v4.11h1.16c1.23,0,2.06-0.83,2.06-2.04v-0.02c0-1.21-0.83-2.06-2.06-2.06H104.44z"/>
		<path class="st0" d="M110.63,55.72h1.5v6.83h-1.5V55.72z"/>
		<path class="st0" d="M115.43,57.11h-2.08v-1.38h5.66v1.38h-2.08v5.44h-1.5V57.11z"/>
		<path class="st0" d="M123.38,54.77h1.17v9.03h-1.17V54.77z"/>
		<path class="st0" d="M131,57.11h-2.08v-1.38h5.66v1.38h-2.08v5.44H131V57.11z"/>
		<path class="st0" d="M137.19,55.68h1.38l2.93,6.87h-1.57l-0.62-1.53h-2.89l-0.62,1.53h-1.53L137.19,55.68z M138.77,59.69
			l-0.91-2.21l-0.91,2.21H138.77z"/>
		<path class="st0" d="M148.27,55.72l-2.28,3.33l2.38,3.49h-1.75l-1.53-2.34l-1.54,2.34h-1.71l2.38-3.47l-2.28-3.35h1.75l1.42,2.21
			l1.45-2.21H148.27z"/>
		<path class="st0" d="M152.71,54.77h1.17v9.03h-1.17V54.77z"/>
		<path class="st0" d="M161.08,55.68h1.38l2.92,6.87h-1.57l-0.62-1.53h-2.89l-0.62,1.53h-1.53L161.08,55.68z M162.66,59.69
			l-0.91-2.21l-0.91,2.21H162.66z"/>
		<path class="st0" d="M166.44,55.72h2.66c2.15,0,3.63,1.47,3.63,3.39v0.02c0,1.92-1.48,3.41-3.63,3.41h-2.66V55.72z M167.95,57.08
			v4.11h1.16c1.23,0,2.06-0.83,2.06-2.04v-0.02c0-1.21-0.83-2.06-2.06-2.06H167.95z"/>
		<path class="st0" d="M173.04,55.72h1.66l1.78,4.81l1.78-4.81h1.62l-2.76,6.87h-1.33L173.04,55.72z"/>
		<path class="st0" d="M181,55.72h1.5v6.83H181V55.72z"/>
		<path class="st0" d="M183.74,61.56l0.89-1.06c0.61,0.51,1.26,0.83,2.04,0.83c0.61,0,0.98-0.24,0.98-0.64v-0.02
			c0-0.38-0.23-0.58-1.38-0.87c-1.37-0.35-2.26-0.73-2.26-2.09v-0.02c0-1.24,0.99-2.06,2.39-2.06c1,0,1.84,0.31,2.54,0.87
			l-0.78,1.13c-0.6-0.42-1.2-0.67-1.77-0.67s-0.88,0.26-0.88,0.59v0.02c0,0.45,0.29,0.59,1.47,0.9c1.38,0.36,2.17,0.86,2.17,2.05
			v0.02c0,1.36-1.03,2.12-2.51,2.12C185.6,62.65,184.56,62.29,183.74,61.56z"/>
		<path class="st0" d="M190.15,59.16v-0.02c0-1.94,1.53-3.53,3.64-3.53c2.11,0,3.62,1.57,3.62,3.51v0.02c0,1.94-1.53,3.53-3.64,3.53
			C191.66,62.67,190.15,61.1,190.15,59.16z M195.83,59.16v-0.02c0-1.17-0.86-2.14-2.07-2.14s-2.05,0.96-2.05,2.13v0.02
			c0,1.17,0.86,2.15,2.07,2.15S195.83,60.33,195.83,59.16z"/>
		<path class="st0" d="M198.73,55.72h3.12c0.87,0,1.54,0.24,1.99,0.69c0.38,0.38,0.59,0.92,0.59,1.56V58c0,1.1-0.59,1.79-1.46,2.12
			l1.67,2.44h-1.75l-1.46-2.18h-1.18v2.18h-1.5V55.72z M201.75,59.04c0.73,0,1.15-0.39,1.15-0.97v-0.02c0-0.64-0.45-0.97-1.18-0.97
			h-1.49v1.96H201.75z"/>
		<path class="st0" d="M207.46,59.86l-2.62-4.13h1.75l1.63,2.74l1.66-2.74h1.71l-2.62,4.1v2.72h-1.5V59.86z"/>
	</g>
</g>
</svg>
