<svg width="500" height="168" viewBox="0 0 500 168" fill="none" xmlns="http://www.w3.org/2000/svg">
<g clip-path="url(#clip0_499_826)">
<path d="M370.781 48.711C367.382 48.711 364.435 47.9461 361.937 46.4144C359.441 44.8826 357.51 42.7738 356.147 40.0898C354.805 37.3826 354.133 34.2688 354.133 30.7425C354.133 27.2162 354.824 24.081 356.209 21.3951C357.593 18.688 359.534 16.5908 362.032 15.1016C364.528 13.5912 367.444 12.8359 370.781 12.8359C374.117 12.8359 377.126 13.6008 379.625 15.1326C382.121 16.6643 384.051 18.7732 385.415 21.4571C386.778 24.143 387.459 27.2375 387.459 30.7406C387.459 34.2436 386.768 37.4117 385.382 40.1189C384.018 42.8048 382.088 44.9136 379.592 46.4434C377.095 47.9538 374.158 48.7091 370.781 48.7091V48.711ZM370.781 42.5124C374.032 42.5124 376.456 41.4221 378.05 39.2397C379.665 37.036 380.473 34.2049 380.473 30.7425C380.473 27.2801 379.656 24.3638 378.017 22.2453C376.402 20.1055 373.989 19.0346 370.779 19.0346C368.575 19.0346 366.761 19.5381 365.333 20.545C363.906 21.5307 362.847 22.9056 362.156 24.6678C361.464 26.4087 361.118 28.4342 361.118 30.7406C361.118 34.3075 361.935 37.16 363.571 39.2998C365.207 41.4396 367.611 42.5104 370.779 42.5104L370.781 42.5124Z" fill="#303030"/>
<path d="M352.26 14.0327L348.273 19.631L328.238 47.7544H322.109L339.89 22.8049L325.19 14.083C325.028 13.9881 325.095 13.7422 325.285 13.7422H352.113C352.26 13.7422 352.347 13.9107 352.26 14.0327ZM339.137 36.2362C339.034 36.1704 338.899 36.1975 338.827 36.2963L334.791 41.9663L330.585 47.8473H358.445L343.167 38.7827L339.139 36.2343L339.137 36.2362Z" fill="#F46A4A"/>
<path d="M307.097 48.68C302.964 48.68 299.597 47.7679 296.994 45.9419C294.393 44.1158 292.798 41.5461 292.211 38.2308L298.946 37.1929C299.366 38.9551 300.331 40.3513 301.841 41.3776C303.373 42.3846 305.271 42.888 307.536 42.888C309.593 42.888 311.198 42.4678 312.35 41.6293C313.526 40.7908 314.112 39.6367 314.112 38.1669C314.112 37.3071 313.903 36.6139 313.483 36.0891C313.084 35.543 312.234 35.0298 310.935 34.5477C309.633 34.0655 307.65 33.4671 304.988 32.7545C302.071 31.9993 299.753 31.1918 298.034 30.332C296.334 29.4509 295.118 28.4342 294.384 27.2801C293.671 26.1046 293.315 24.6891 293.315 23.0315C293.315 20.9749 293.861 19.1818 294.951 17.65C296.041 16.1183 297.575 14.9331 299.546 14.0946C301.539 13.2562 303.868 12.8359 306.533 12.8359C309.198 12.8359 311.454 13.2445 313.487 14.0637C315.522 14.8828 317.168 16.0466 318.429 17.5571C319.688 19.0462 320.443 20.7987 320.694 22.8126L313.959 24.0404C313.729 22.404 312.962 21.1144 311.663 20.1694C310.361 19.2244 308.673 18.7112 306.595 18.6279C304.602 18.5447 302.987 18.8797 301.75 19.6349C300.513 20.3688 299.893 21.3874 299.893 22.6868C299.893 23.442 300.123 24.081 300.586 24.6058C301.068 25.1306 301.992 25.6341 303.355 26.1163C304.719 26.5984 306.733 27.1755 309.397 27.8475C312.25 28.5814 314.515 29.4005 316.194 30.3029C317.873 31.184 319.068 32.2433 319.782 33.4807C320.516 34.6968 320.884 36.1762 320.884 37.9171C320.884 41.273 319.657 43.9066 317.203 45.816C314.769 47.7253 311.401 48.68 307.102 48.68H307.097Z" fill="#303030"/>
<path d="M254.051 13.6165C255.163 13.5332 256.234 13.5855 257.26 13.7733V19.941C256.149 19.6467 254.911 19.5634 253.548 19.6893C252.206 19.8151 250.967 20.245 249.834 20.979C248.763 21.6722 247.915 22.5107 247.285 23.4964C246.677 24.482 246.236 25.5839 245.963 26.8C245.69 27.9967 245.554 29.2651 245.554 30.6071V47.7584H238.914V13.7753H244.768V19.2187C245.016 18.7811 245.289 18.3608 245.587 17.96C246.259 17.0363 247.034 16.2811 247.915 15.6943C248.775 15.065 249.729 14.5828 250.779 14.2478C251.85 13.8915 252.94 13.6804 254.051 13.6184V13.6165Z" fill="#303030"/>
<path d="M200.914 47.7548V2.4375H219.229C219.671 2.4375 220.215 2.4588 220.866 2.5014C221.516 2.5227 222.134 2.58467 222.723 2.69118C225.24 3.09009 227.339 3.94988 229.016 5.27249C230.716 6.5951 231.985 8.26241 232.823 10.2763C233.662 12.2903 234.082 14.5133 234.082 16.9475C234.082 19.3816 233.662 21.6357 232.823 23.6515C231.985 25.6655 230.714 27.3328 229.016 28.6554C227.337 29.978 225.24 30.8378 222.723 31.2367C222.136 31.32 221.507 31.3839 220.835 31.4265C220.184 31.4691 219.649 31.4884 219.229 31.4884H207.49V47.7587H200.914V47.7548ZM207.49 25.253H218.977C219.398 25.253 219.859 25.2317 220.362 25.1891C220.887 25.1465 221.379 25.0729 221.842 24.9683C223.183 24.6527 224.264 24.0776 225.083 23.2371C225.902 22.3773 226.489 21.3917 226.845 20.2782C227.202 19.1667 227.38 18.0551 227.38 16.9417C227.38 15.8282 227.202 14.7283 226.845 13.6381C226.489 12.5265 225.9 11.5505 225.083 10.712C224.264 9.85225 223.183 9.26356 221.842 8.94985C221.381 8.82398 220.887 8.74071 220.362 8.69811C219.859 8.65551 219.398 8.63421 218.977 8.63421H207.49V25.2511V25.253Z" fill="#303030"/>
<path fill-rule="evenodd" clip-rule="evenodd" d="M288.761 47.7529L288.668 33.6592H282.08C282.554 40.4853 274.501 45.2297 268.403 42.6541C266.544 41.8679 265.186 39.5442 265.802 37.5883C266.685 34.7882 269.601 33.3804 272.278 32.8149C274.795 32.2843 277.398 31.9726 279.948 31.6531C280.012 31.6453 280.074 31.6376 280.138 31.6298C282.522 31.3355 285.513 31.2309 287.285 29.3932C288.449 28.1868 288.896 26.4924 288.904 24.8522C288.92 21.3258 287.157 17.3967 284.274 15.3015C283.759 14.9277 283.199 14.614 282.599 14.3991C274.979 10.9425 263.114 12.8577 260.624 21.7635L266.608 24.1415C268.062 18.0939 278.438 17.1121 281.24 21.7441C282.221 23.1713 282.506 25.7991 280.262 26.0586C274.398 27.0965 267.617 27.1914 262.833 30.6635C257.359 34.6759 258.215 44.2595 264.377 47.3133C270.366 50.2393 279.262 48.632 282.946 42.8226V47.7567H288.765L288.761 47.7529Z" fill="#303030"/>
</g>
<path d="M471.359 159.512C462.799 159.512 455.826 157.622 450.438 153.842C445.05 150.062 441.748 144.739 440.531 137.875L454.479 135.724C455.348 139.374 457.346 142.263 460.475 144.392C463.646 146.477 467.579 147.52 472.271 147.52C476.529 147.52 479.853 146.651 482.243 144.913C484.676 143.175 485.893 140.786 485.893 137.744C485.893 135.963 485.458 134.529 484.589 133.443C483.764 132.313 482.004 131.249 479.31 130.25C476.616 129.25 472.51 128.012 466.992 126.535C460.953 124.971 456.151 123.298 452.589 121.517C449.069 119.692 446.549 117.585 445.028 115.195C443.551 112.762 442.812 109.829 442.812 106.397C442.812 102.139 443.942 98.4242 446.201 95.2525C448.461 92.0808 451.633 89.626 455.717 87.8881C459.845 86.1502 464.668 85.2812 470.186 85.2812C475.573 85.2812 480.375 86.1285 484.589 87.8229C488.804 89.5174 492.215 91.9287 494.822 95.057C497.428 98.1418 498.993 101.77 499.514 105.941L485.567 108.482C485.089 105.093 483.503 102.421 480.809 100.466C478.115 98.5111 474.617 97.4466 470.316 97.2728C466.188 97.099 462.843 97.7942 460.279 99.3583C457.716 100.879 456.434 102.986 456.434 105.68C456.434 107.244 456.912 108.569 457.868 109.655C458.867 110.742 460.779 111.784 463.603 112.784C466.427 113.783 470.598 114.978 476.116 116.368C482.026 117.889 486.718 119.583 490.194 121.451C493.67 123.276 496.147 125.47 497.624 128.034C499.145 130.554 499.905 133.617 499.905 137.223C499.905 144.175 497.363 149.627 492.28 153.581C487.24 157.535 480.266 159.512 471.359 159.512Z" fill="#2B2B2B"/>
<path d="M400.459 159.577C393.246 159.577 387.12 157.969 382.079 154.754C377.039 151.539 373.172 147.129 370.478 141.524C367.828 135.92 366.481 129.554 366.438 122.429C366.481 115.173 367.871 108.765 370.609 103.203C373.346 97.5987 377.256 93.2104 382.34 90.0388C387.424 86.8671 393.528 85.2812 400.654 85.2812C408.345 85.2812 414.906 87.1929 420.337 91.0163C425.811 94.8397 429.418 100.075 431.156 106.723L417.599 110.633C416.252 106.679 414.037 103.616 410.952 101.444C407.91 99.228 404.412 98.12 400.459 98.12C395.983 98.12 392.312 99.1845 389.444 101.313C386.576 103.399 384.447 106.266 383.057 109.916C381.667 113.566 380.95 117.737 380.906 122.429C380.95 129.685 382.601 135.55 385.859 140.025C389.162 144.5 394.028 146.738 400.459 146.738C404.847 146.738 408.388 145.739 411.082 143.74C413.819 141.698 415.905 138.787 417.339 135.007L431.156 138.266C428.853 145.13 425.051 150.409 419.75 154.102C414.449 157.752 408.019 159.577 400.459 159.577Z" fill="#2B2B2B"/>
<path d="M321.485 159.577C314.446 159.577 308.342 157.991 303.171 154.819C298.001 151.648 294.003 147.281 291.179 141.72C288.398 136.115 287.008 129.663 287.008 122.364C287.008 115.021 288.442 108.569 291.309 103.008C294.177 97.4031 298.196 93.0584 303.367 89.9736C308.537 86.8454 314.577 85.2812 321.485 85.2812C328.524 85.2812 334.629 86.8671 339.799 90.0388C344.97 93.2104 348.967 97.5769 351.791 103.138C354.615 108.7 356.027 115.108 356.027 122.364C356.027 129.707 354.594 136.18 351.726 141.785C348.902 147.346 344.904 151.713 339.734 154.884C334.563 158.013 328.48 159.577 321.485 159.577ZM321.485 146.738C328.22 146.738 333.238 144.479 336.54 139.96C339.886 135.398 341.559 129.533 341.559 122.364C341.559 115.021 339.864 109.156 336.475 104.768C333.13 100.336 328.133 98.12 321.485 98.12C316.923 98.12 313.164 99.1628 310.21 101.248C307.255 103.29 305.061 106.136 303.627 109.786C302.193 113.392 301.477 117.585 301.477 122.364C301.477 129.75 303.171 135.659 306.56 140.09C309.949 144.522 314.924 146.738 321.485 146.738Z" fill="#2B2B2B"/>
<path d="M200.93 157.628V63.7812H230.323C231.192 63.7812 232.8 63.803 235.146 63.8464C237.536 63.8899 239.817 64.0637 241.99 64.3678C249.333 65.2802 255.502 67.9088 260.499 72.2536C265.539 76.5983 269.341 82.1162 271.905 88.8071C274.468 95.4546 275.75 102.754 275.75 110.705C275.75 118.699 274.468 126.042 271.905 132.733C269.341 139.38 265.539 144.876 260.499 149.221C255.502 153.522 249.333 156.129 241.99 157.042C239.817 157.346 237.536 157.52 235.146 157.563C232.8 157.607 231.192 157.628 230.323 157.628H200.93ZM214.877 144.659H230.323C231.801 144.659 233.56 144.616 235.602 144.529C237.645 144.442 239.448 144.268 241.012 144.007C245.791 143.095 249.658 141.031 252.613 137.816C255.611 134.558 257.805 130.56 259.196 125.825C260.586 121.089 261.281 116.049 261.281 110.705C261.281 105.187 260.564 100.082 259.13 95.3894C257.697 90.6536 255.481 86.6999 252.483 83.5282C249.528 80.3131 245.704 78.2711 241.012 77.4021C239.448 77.098 237.623 76.9242 235.537 76.8807C233.495 76.7938 231.757 76.7504 230.323 76.7504H214.877V144.659Z" fill="#2B2B2B"/>
<path d="M0 14.6619C0 6.56438 6.56438 0 14.6619 0H152.83C160.927 0 167.492 6.56438 167.492 14.6619V152.823C167.492 160.92 160.927 167.484 152.83 167.484H14.6619C6.56438 167.484 0 160.92 0 152.823V14.6619Z" fill="#D72D2D"/>
<g clip-path="url(#clip1_499_826)">
<path d="M130.827 47.9272L85.6503 25.2059C84.6845 24.723 83.5496 24.723 82.6079 25.2059L37.8898 47.6857C36.924 48.1687 36.3203 49.1586 36.3203 50.2452V119.689C36.3203 120.003 36.4893 120.268 36.7791 120.413L82.946 143.497C83.4772 143.762 84.1291 143.376 84.1291 142.772V74.1496C84.1291 73.063 84.7328 72.0731 85.6986 71.5901L130.827 49.0379C131.286 48.8206 131.286 48.1687 130.827 47.9272ZM62.9291 106.843L53.4639 102.111C53.319 102.038 53.2224 101.869 53.2224 101.724V92.3073C53.2224 91.9693 53.5605 91.7519 53.8744 91.921L62.1805 96.0741C65.2712 97.6194 67.227 100.782 67.227 104.211C67.227 106.408 64.909 107.833 62.9532 106.843H62.9291Z" fill="white"/>
<path d="M131.168 55.9552V85.2931C131.168 85.6032 130.999 85.8894 130.709 86.0087L89.3714 106.545C88.816 106.808 88.1882 106.426 88.1882 105.83V76.4917C88.1882 76.1817 88.3572 75.8954 88.647 75.7762L101.589 69.36C101.927 69.193 102.314 69.2646 102.579 69.5508L104.052 71.1489C104.294 71.4113 104.704 71.5067 105.042 71.3397L109.726 69.0261L114.7 66.5455C114.869 66.4739 114.99 66.3308 115.087 66.1638L117.139 61.8705C117.212 61.7035 117.356 61.5843 117.525 61.4889L130.033 55.2874C130.588 55.025 131.216 55.4066 131.216 56.0029L131.168 55.9552ZM117.115 98.7933L115.063 103.087C114.99 103.254 114.845 103.373 114.676 103.468L109.702 105.949L105.018 108.263C104.68 108.43 104.294 108.358 104.028 108.072L102.555 106.474C102.314 106.211 101.903 106.116 101.565 106.283L88.6228 112.699C88.3331 112.842 88.1641 113.128 88.1641 113.415V142.752C88.1641 143.349 88.816 143.754 89.3472 143.468L130.685 122.932C130.975 122.788 131.144 122.502 131.144 122.216V92.878C131.144 92.2817 130.492 91.8763 129.961 92.1625L117.453 98.364C117.284 98.4356 117.163 98.5787 117.067 98.7456L117.115 98.7933Z" fill="white"/>
</g>
<defs>
<clipPath id="clip0_499_826">
<rect width="186.554" height="46.3029" fill="white" transform="translate(200.914 2.4375)"/>
</clipPath>
<clipPath id="clip1_499_826">
<rect width="94.845" height="118.744" fill="white" transform="translate(36.3203 24.8438)"/>
</clipPath>
</defs>
</svg>
